<?xml version="1.0" encoding="utf-8"?>
<!-- Generator: Adobe Illustrator 27.5.0, SVG Export Plug-In . SVG Version: 6.00 Build 0)  -->
<svg version="1.1" xmlns="http://www.w3.org/2000/svg" xmlns:xlink="http://www.w3.org/1999/xlink" x="0px" y="0px"
	 viewBox="0 0 500 500" style="enable-background:new 0 0 500 500;" xml:space="preserve">
<g id="BACKGROUND">
	<rect style="fill:#FFFFFF;" width="500" height="500"/>
</g>
<g id="OBJECTS">
	<g>
		<text transform="matrix(1 0 0 1 179.3665 396.7716)" style="font-family:'BebasNeueBold'; font-size:60px;">CINEMA</text>
		
			<text transform="matrix(1 0 0 1 178.9905 429.0119)" style="font-family:'BebasNeue-Regular'; font-size:30px; letter-spacing:3;">PRODUCTION</text>
	</g>
	<g>
		<g>
			<polygon style="fill:#6D38E0;" points="156.579,231.478 321.855,175.118 316.044,331.855 179.172,334.439 			"/>
			<g>
				<path style="fill:#FFFFFF;" d="M313.603,270.924c0,14.305-15.508,25.898-34.638,25.898c-19.128,0-34.636-11.594-34.636-25.898
					c0-14.304,15.508-25.898,34.636-25.898C298.095,245.026,313.603,256.62,313.603,270.924z"/>
				<path style="fill:#002547;" d="M260.03,275.06c0,3.293-2.529,5.964-5.652,5.964c-3.122,0-5.652-2.671-5.652-5.964
					c0-3.298,2.53-5.972,5.652-5.972C257.501,269.088,260.03,271.762,260.03,275.06z"/>
				<path style="fill:#FFFFFF;" d="M170.183,275.056c0,14.305,15.508,25.898,34.638,25.898c19.128,0,34.636-11.594,34.636-25.898
					c0-14.304-15.508-25.898-34.636-25.898C185.691,249.158,170.183,260.752,170.183,275.056z"/>
				<path style="fill:#002547;" d="M223.756,279.192c0,3.293,2.529,5.964,5.652,5.964c3.122,0,5.652-2.671,5.652-5.964
					c0-3.298-2.53-5.972-5.652-5.972C226.285,273.22,223.756,275.894,223.756,279.192z"/>
			</g>
			<g>
				<polygon style="fill:#D2CCFF;" points="299.583,182.579 289.974,210.79 268.107,215.819 276.181,190.576 				"/>
				<polygon style="fill:#D2CCFF;" points="183.79,222.161 178.849,236.373 158.668,241.016 156.575,231.463 				"/>
				<polygon style="fill:#D2CCFF;" points="244.66,201.357 237.54,222.863 208.057,229.644 214.575,211.633 				"/>
			</g>
		</g>
		<g>
			<polygon style="fill:#6D38E0;" points="148.909,196.061 188.003,207.458 213.764,186.344 169.883,176.394 			"/>
			<polygon style="fill:#6D38E0;" points="296.255,118.565 284.633,69.175 243.073,108.076 288.995,124.401 			"/>
			<polygon style="fill:#6D38E0;" points="270.948,139.275 219.986,129.608 193.237,154.641 234.018,169.565 			"/>
			<polygon style="fill:#D2CCFF;" points="270.322,139.901 289.832,123.85 243.871,107.279 219.65,129.921 			"/>
			<polygon style="fill:#D2CCFF;" points="193.712,154.166 169.179,177.098 213.205,186.903 239.941,164.902 			"/>
			<polygon style="fill:#D2CCFF;" points="136.145,207.983 157.096,233.843 160.826,230.008 188.853,206.941 149.138,195.832 			"/>
		</g>
	</g>
</g>
</svg>
